HIERARCHY
ROOT Hips
{
	OFFSET 0.000000 0.000000 0.000000
	CHANNELS 6 Xposition Yposition Zposition Xrotation Yrotation Zrotation
	JOINT LeftUpLeg_virtual
	{
		OFFSET 0.000000 0.000000 0.000000
		CHANNELS 3 Xrotation Yrotation Zrotation
		JOINT LeftUpLeg
		{
			OFFSET 11.394100 -6.187798 -0.413800
			CHANNELS 3 Xrotation Yrotation Zrotation
			JOINT LeftLeg
			{
				OFFSET 0.430247 -32.302673 3.732800
				CHANNELS 3 Xrotation Yrotation Zrotation
				JOINT LeftFoot
				{
					OFFSET -0.430247 -48.264931 -6.423300
					CHANNELS 3 Xrotation Yrotation Zrotation
					JOINT LeftToeBase
					{
						OFFSET 4.230900 -16.068199 23.438400
						CHANNELS 3 Xrotation Yrotation Zrotation
						JOINT LeftToe_End
						{
							OFFSET 4.510700 0.695400 19.974600
							CHANNELS 3 Xrotation Yrotation Zrotation
							End Site
							{
								OFFSET 0 0 0
							}
						}
					}
				}
			}
		}
	}
	JOINT RightUpLeg_virtual
	{
		OFFSET 0.000000 0.000000 0.000000
		CHANNELS 3 Xrotation Yrotation Zrotation
		JOINT RightUpLeg
		{
			OFFSET -11.333700 -6.187798 -0.413800
			CHANNELS 3 Xrotation Yrotation Zrotation
			JOINT RightLeg
			{
				OFFSET -0.430392 -32.302628 3.733000
				CHANNELS 3 Xrotation Yrotation Zrotation
				JOINT RightFoot
				{
					OFFSET 0.430392 -48.264973 -6.423500
					CHANNELS 3 Xrotation Yrotation Zrotation
					JOINT RightToeBase
					{
						OFFSET -4.230900 -16.068199 23.438400
						CHANNELS 3 Xrotation Yrotation Zrotation
						JOINT RightToe_End
						{
							OFFSET -4.510700 0.695400 19.974600
							CHANNELS 3 Xrotation Yrotation Zrotation
							End Site
							{
								OFFSET 0 0 0
							}
						}
					}
				}
			}
		}
	}
	JOINT Spine_virtual
	{
		OFFSET 0.000000 0.000000 0.000000
		CHANNELS 3 Xrotation Yrotation Zrotation
		JOINT Spine
		{
			OFFSET -0.002400 12.777504 0.315300
			CHANNELS 3 Xrotation Yrotation Zrotation
			JOINT Spine1
			{
				OFFSET -0.002067 5.816869 0.032633
				CHANNELS 3 Xrotation Yrotation Zrotation
				JOINT Spine1_split
				{
					OFFSET -0.002067 5.816869 0.032633
					CHANNELS 3 Xrotation Yrotation Zrotation
					JOINT Spine2
					{
						OFFSET -0.002067 5.816869 0.032633
						CHANNELS 3 Xrotation Yrotation Zrotation
						JOINT Neck_virtual
						{
							OFFSET 0.000000 0.000000 0.000000
							CHANNELS 3 Xrotation Yrotation Zrotation
							JOINT Neck
							{
								OFFSET -0.003700 21.199493 -0.826900
								CHANNELS 3 Xrotation Yrotation Zrotation
								JOINT Head
								{
									OFFSET 0.000000 20.442200 4.834800
									CHANNELS 3 Xrotation Yrotation Zrotation
									JOINT HeadTop_End
									{
										OFFSET 0.000000 34.668396 4.968400
										CHANNELS 3 Xrotation Yrotation Zrotation
										End Site
										{
											OFFSET 0 0 0
										}
									}
								}
							}
						}
						JOINT LeftShoulder_virtual
						{
							OFFSET 0.000000 0.000000 0.000000
							CHANNELS 3 Xrotation Yrotation Zrotation
							JOINT LeftShoulder
							{
								OFFSET 3.288150 8.794197 -1.372250
								CHANNELS 3 Xrotation Yrotation Zrotation
								JOINT LeftShoulder_split
								{
									OFFSET 3.288150 8.794197 -1.372250
									CHANNELS 3 Xrotation Yrotation Zrotation
									JOINT LeftArm
									{
										OFFSET 11.953299 -2.279007 -0.146200
										CHANNELS 3 Xrotation Yrotation Zrotation
										JOINT LeftForeArm
										{
											OFFSET 18.448900 0.000000 0.000000
											CHANNELS 3 Xrotation Yrotation Zrotation
											JOINT LeftHand
											{
												OFFSET 29.527798 0.000000 0.000000
												CHANNELS 3 Xrotation Yrotation Zrotation
												End Site
												{
													OFFSET 0 0 0
												}
											}
										}
									}
								}
							}
						}
						JOINT RightShoulder_virtual
						{
							OFFSET 0.000000 0.000000 0.000000
							CHANNELS 3 Xrotation Yrotation Zrotation
							JOINT RightShoulder
							{
								OFFSET -3.249400 8.794197 -1.372250
								CHANNELS 3 Xrotation Yrotation Zrotation
								JOINT RightShoulder_split
								{
									OFFSET -3.249400 8.794197 -1.372250
									CHANNELS 3 Xrotation Yrotation Zrotation
									JOINT RightArm
									{
										OFFSET -11.953299 -2.279007 -0.146200
										CHANNELS 3 Xrotation Yrotation Zrotation
										JOINT RightForeArm
										{
											OFFSET -18.448900 0.000000 0.000000
											CHANNELS 3 Xrotation Yrotation Zrotation
											JOINT RightHand
											{
												OFFSET -29.527802 0.000000 0.000000
												CHANNELS 3 Xrotation Yrotation Zrotation
												End Site
												{
													OFFSET 0 0 0
												}
											}
										}
									}
								}
							}
						}
					}
				}
			}
		}
	}
}
MOTION
Frames: 9
Frame Time: 0.03333333
-0.758089 99.150650 -1.765331 0.000000 0.000000 0.000000 0.089476 -30.678259 -1.072291 -25.094373 14.918875 17.054409 29.290576 8.860518 -2.861448 -4.217069 -6.204050 -1.371050 1.369823 -0.399274 -2.532812 0.000000 0.000000 0.000000 0.041530 -30.738658 -0.833030 -21.565477 -0.522869 -5.502775 18.823726 2.294835 -2.072165 -3.321489 1.888791 3.837796 -3.597743 -0.119058 -2.382279 0.000000 0.000000 0.000000 0.785662 -28.586971 -1.280479 6.884982 -1.447734 0.173316 1.835239 -1.004706 2.638089 0.217130 -3.447053 0.336878 0.000000 0.000000 0.000000 2.406171 -0.338559 2.502234 -6.165666 18.174165 -8.569792 -1.766713 21.820054 4.152105 0.000000 0.000000 0.000000 2.011514 0.020700 2.762496 0.848717 -10.312238 -3.605350 0.391573 -3.745491 -1.910869 -61.397356 0.622442 -34.766411 23.021545 -63.762268 24.218418 0.000000 0.000000 0.000000 1.771929 -0.616876 2.124049 3.662837 7.245763 7.054648 -1.576244 -3.975887 2.323069 -1.390651 -0.774804 61.383456 16.239278 14.667874 -7.880707 0.000000 0.000000 0.000000 
-0.703990 99.014290 -1.986820 0.000000 0.000000 0.000000 -0.066656 -29.989496 -1.047060 -26.359836 15.488366 17.143881 29.643820 8.714638 -2.576907 -3.956123 -6.629207 -1.834241 0.964451 -0.420572 -2.270174 0.000000 0.000000 0.000000 0.141089 -30.033619 -0.742494 -21.162245 -0.639210 -5.615371 18.902958 1.911087 -2.216829 -3.579130 1.354115 5.517678 -5.741037 -0.133707 -2.681105 0.000000 0.000000 0.000000 0.566442 -26.990657 -0.887510 6.574695 -1.094907 0.138448 2.091919 -0.771323 2.562444 -0.970340 -1.145707 0.412848 0.000000 0.000000 0.000000 2.126431 -0.226807 2.322190 -6.075972 17.153750 -8.104639 -2.699183 21.144842 4.670515 0.000000 0.000000 0.000000 2.169784 0.223051 2.623036 0.411033 -8.988897 -4.099464 -0.786641 -1.956516 -2.585991 -60.255847 3.512393 -33.993763 24.037630 -64.012082 24.900016 0.000000 0.000000 0.000000 1.734993 -0.380544 1.999953 3.646075 7.504518 7.618001 -1.621208 -4.049012 1.503438 -0.266488 -0.475506 60.618434 16.714129 15.405287 -8.073289 0.000000 0.000000 0.000000 
-0.738980 98.576050 -1.873016 0.000000 0.000000 0.000000 -0.045434 -26.960000 -0.740480 -28.757166 14.633906 16.720764 30.699330 8.238953 -2.281341 -2.939381 -7.570781 -2.034129 0.338385 -0.488283 -1.856709 0.000000 0.000000 0.000000 0.354936 -26.652061 -0.482773 -18.899321 -1.743242 -5.721476 19.198093 0.182454 -2.388943 -6.335782 -0.530030 6.078629 -5.077206 -0.300661 -2.260062 0.000000 0.000000 0.000000 0.727747 -23.597551 -0.307489 5.945338 -0.371859 0.231033 2.478156 -0.193974 2.410416 -1.665555 0.437079 0.289920 0.000000 0.000000 0.000000 2.045819 0.210861 2.122912 -6.692188 14.655663 -7.309030 -3.417376 18.281039 4.559898 0.000000 0.000000 0.000000 2.399683 0.673523 2.336390 -0.120925 -7.011478 -4.766696 -1.391967 -1.072488 -2.300429 -61.295723 8.652165 -32.341530 25.299774 -66.886950 25.545717 0.000000 0.000000 0.000000 1.744184 0.190090 1.845794 3.694006 8.124776 8.508190 -1.747651 -3.751423 0.673210 1.419756 -1.628216 60.135847 17.856230 17.268988 -8.813403 0.000000 0.000000 0.000000 
-0.800393 98.021233 -1.336758 0.000000 0.000000 0.000000 0.171465 -21.769881 -0.277874 -31.812651 12.473472 15.663239 31.724156 7.661994 -1.998869 -0.925589 -8.824016 -1.831175 -0.052967 -0.578554 -1.467505 0.000000 0.000000 0.000000 0.633257 -21.082376 -0.122678 -15.342517 -3.700722 -5.823305 19.271088 -2.480732 -2.527479 -10.528002 -3.113836 5.758672 -2.643602 -0.381016 -1.417687 0.000000 0.000000 0.000000 1.212056 -18.784834 0.242791 4.967082 0.715734 0.403442 2.932423 0.714566 2.112924 -1.446307 1.158130 0.053957 0.000000 0.000000 0.000000 2.165091 1.000480 1.837403 -7.841904 10.781719 -6.112951 -3.830449 13.477782 3.808951 0.000000 0.000000 0.000000 2.677425 1.411992 1.933763 -0.675466 -4.623199 -5.386528 -0.925639 -1.669603 -0.781600 -64.255141 14.053897 -30.066759 26.721303 -71.616152 26.054906 0.000000 0.000000 0.000000 1.840536 1.090138 1.588792 3.756125 8.935363 9.704276 -1.999510 -3.356051 0.042902 3.188413 -3.871942 60.000849 19.432486 19.509804 -9.941254 0.000000 0.000000 0.000000 
-0.835652 97.572632 -0.517323 0.000000 0.000000 0.000000 0.457551 -15.035505 0.166187 -34.996779 9.014723 13.848700 32.117592 7.206175 -1.731835 2.010446 -10.092182 -1.200081 0.032709 -0.672937 -1.146574 0.000000 0.000000 0.000000 0.980405 -14.049924 0.253883 -11.080478 -6.128847 -5.936150 19.186123 -5.098439 -2.526745 -14.297745 -5.313562 5.796809 -1.358682 -0.215950 -0.465554 0.000000 0.000000 0.000000 1.764130 -12.943169 0.616162 3.659501 2.142722 0.604634 3.343657 1.924305 1.642017 -0.410753 1.314862 0.140815 0.000000 0.000000 0.000000 2.483640 2.126233 1.437845 -9.301854 5.648951 -4.335471 -3.866630 7.285279 2.452282 0.000000 0.000000 0.000000 2.933438 2.464457 1.443228 -1.162910 -2.047781 -5.908836 0.039279 -2.926301 1.206923 -68.185806 18.502387 -27.556316 27.117434 -77.039944 25.367565 0.000000 0.000000 0.000000 2.040449 2.279516 1.205418 3.756244 9.751903 11.134083 -2.692739 -2.956314 -0.235954 4.738966 -6.470264 59.982380 21.137566 21.331562 -11.283661 0.000000 0.000000 0.000000 
-0.866481 97.196571 0.374107 0.000000 0.000000 0.000000 0.760454 -7.515553 0.425177 -37.742997 4.554824 11.361607 31.260697 6.893988 -1.456287 5.352665 -11.193383 -0.202328 0.533127 -0.746517 -0.739783 0.000000 0.000000 0.000000 1.224713 -6.621549 0.474027 -6.721831 -8.570677 -6.028957 19.171530 -7.003757 -2.376629 -15.869415 -6.524938 7.215587 -3.380733 0.135427 0.294585 0.000000 0.000000 0.000000 2.132454 -6.527457 0.687284 2.109269 3.826146 0.859483 3.637234 3.359894 1.053801 0.755868 1.483314 0.206825 0.000000 0.000000 0.000000 2.930876 3.512149 0.938960 -10.724436 -0.537121 -1.871313 -3.432171 0.260053 0.574569 0.000000 0.000000 0.000000 3.122729 3.799633 0.921991 -1.519631 0.474052 -6.264907 1.276462 -4.389229 3.120706 -71.799242 21.225559 -25.316308 23.714290 -82.236407 20.883233 0.000000 0.000000 0.000000 2.337021 3.673335 0.706497 3.615059 10.414391 12.729725 -3.844672 -2.447619 -0.480001 6.064469 -8.666986 59.673730 22.741405 22.430824 -12.680024 0.000000 0.000000 0.000000 
-0.790219 96.890457 1.410126 0.000000 0.000000 0.000000 0.917353 0.404741 0.360027 -39.750311 -0.434839 8.439962 29.062533 6.459744 -1.198525 8.606126 -12.258865 0.748511 1.005121 -0.787701 -0.155447 0.000000 0.000000 0.000000 1.255076 0.808639 0.440114 -2.540283 -10.577863 -5.995516 19.331720 -8.117080 -2.115000 -14.690525 -6.759364 10.076075 -8.616046 0.398564 0.873710 0.000000 0.000000 0.000000 2.080726 0.474280 0.535432 0.423902 5.604952 1.229890 3.775548 4.915026 0.460031 1.495539 1.415409 0.261261 0.000000 0.000000 0.000000 3.374105 5.011834 0.379412 -11.829682 -7.407148 1.189553 -2.677966 -7.117788 -1.645956 0.000000 0.000000 0.000000 3.240647 5.317762 0.442879 -1.707295 2.723531 -6.350969 2.633928 -5.892808 4.634789 -74.229799 22.516263 -23.626751 5.809804 -85.893440 2.080457 0.000000 0.000000 0.000000 2.759278 5.175841 0.143355 3.350926 10.796771 14.187133 -5.201268 -1.912394 -0.783991 7.401719 -9.742564 58.775103 24.252940 22.764527 -14.137661 0.000000 0.000000 0.000000 
-0.613669 96.605606 2.198891 0.000000 0.000000 0.000000 0.682036 8.082737 0.007045 -40.995605 -5.674255 5.529000 26.126445 5.546684 -1.019795 11.821062 -13.397174 1.042992 1.031854 -0.756354 0.532095 0.000000 0.000000 0.000000 0.891149 8.213746 0.141909 1.239625 -11.927008 -5.793220 20.011899 -8.708015 -1.688966 -11.451759 -6.115038 13.282949 -15.646246 0.317850 1.512970 0.000000 0.000000 0.000000 1.509706 7.840757 0.239460 -1.287095 7.314181 1.793457 3.824515 6.438836 -0.025553 1.714492 1.435832 0.532469 0.000000 0.000000 0.000000 3.738466 6.448107 -0.144985 -12.485957 -14.417068 4.632497 -1.884299 -14.149521 -4.105922 0.000000 0.000000 0.000000 3.325667 6.820335 0.034565 -1.700641 4.641112 -6.164571 3.519507 -7.028514 5.307955 -75.504640 23.079696 -22.402880 -28.373381 -86.236985 -32.617568 0.000000 0.000000 0.000000 3.197937 6.628471 -0.404673 3.020503 10.734905 15.191975 -6.375625 -1.162139 -1.191123 9.044455 -9.440009 56.970946 25.748444 22.685934 -15.725570 0.000000 0.000000 0.000000 
-0.302634 96.414276 2.713638 0.000000 0.000000 0.000000 -0.065707 15.361244 -0.462993 -41.716087 -10.716004 2.939690 23.289623 4.025706 -0.990178 15.108129 -14.662191 0.329472 0.606127 -0.564865 1.200927 0.000000 0.000000 0.000000 0.187616 15.644680 -0.396423 4.465463 -12.570646 -5.451533 21.179665 -9.200286 -1.145966 -7.178577 -5.002588 15.501731 -23.398633 -0.156629 2.177201 0.000000 0.000000 0.000000 0.541843 15.122392 -0.168115 -2.867663 8.728986 2.603514 3.817829 7.735071 -0.335164 1.707333 1.627610 0.616817 0.000000 0.000000 0.000000 3.971714 7.643514 -0.556113 -12.683441 -20.921911 8.115679 -1.423677 -20.108912 -6.772205 0.000000 0.000000 0.000000 3.375188 8.106416 -0.282884 -1.569400 6.194759 -5.668310 3.582721 -7.837408 4.806675 -76.558183 23.096775 -21.151486 -32.473516 -84.148040 -36.726856 0.000000 0.000000 0.000000 3.608706 7.854870 -0.888981 2.726199 10.238824 15.388630 -6.939756 -0.250067 -1.517929 11.018324 -8.113087 54.182829 27.337899 22.622461 -17.604196 0.000000 0.000000 0.000000 
